# xmcd
# 
# Track frame offsets:
#     150
#     12424
#     33516
#     53113
#     74477
#     91557
#     109711
#     124760
#     144115
#     153585
#     172010
#     183738
# 
# Disc length: 2682
# 
# Revision: 3
# Processed by: cddbd v1.5.2PL0 Copyright (c) Steve Scherf et al.
# Submitted via: fre:ac v1.0.17
# 
DISCID=9f0a780c
DTITLE=小野リサ - Super Best
DYEAR=2011
DGENRE=Jazz
TTITLE0=Moonlight Serenade
TTITLE1=Garota De Ipanema
TTITLE2=Moon River
TTITLE3=Sentimental Journey
TTITLE4=Smile
TTITLE5=Take Me Home Country Road
TTITLE6=Tea For Two
TTITLE7=Ce'st Si Bon
TTITLE8=On The Sunny Side Of The Street
TTITLE9=What's Going On
TTITLE10=Night And Day
TTITLE11=As Time Goes By
EXTD=YEAR: 2011
EXTT0=
EXTT1=
EXTT2=
EXTT3=
EXTT4=
EXTT5=
EXTT6=
EXTT7=
EXTT8=
EXTT9=
EXTT10=
EXTT11=
PLAYORDER=
